<svg width="132" height="57" viewBox="0 0 132 57" fill="none" xmlns="http://www.w3.org/2000/svg">
<g clip-path="url(#clip0_1530_14)">
<path d="M31.9998 34.2102C35.1502 34.2102 37.7041 31.6536 37.7041 28.5C37.7041 25.3464 35.1502 22.7898 31.9998 22.7898C28.8493 22.7898 26.2954 25.3464 26.2954 28.5C26.2954 31.6536 28.8493 34.2102 31.9998 34.2102Z" fill="url(#paint0_linear_1530_14)"/>
<path d="M31.9998 40.1989C48.9045 40.1989 62.6085 34.9611 62.6085 28.5C62.6085 22.0389 48.9045 16.8011 31.9998 16.8011C15.0951 16.8011 1.39111 22.0389 1.39111 28.5C1.39111 34.9611 15.0951 40.1989 31.9998 40.1989Z" stroke="url(#paint1_linear_1530_14)"/>
<path d="M21.8788 34.3494C30.3312 49.0043 41.7146 58.2655 47.3044 55.035C52.8942 51.8044 50.5736 37.3054 42.1212 22.6505C33.6689 7.99568 22.2855 -1.26554 16.6957 1.96501C11.1059 5.19557 13.4265 19.6946 21.8788 34.3494Z" stroke="url(#paint2_linear_1530_14)"/>
<path d="M21.8785 22.6505C13.4262 37.3054 11.1056 51.8044 16.6954 55.035C22.2852 58.2655 33.6686 49.0043 42.1209 34.3494C50.5733 19.6946 52.8939 5.19557 47.3041 1.96501C41.7143 -1.26555 30.3309 7.99568 21.8785 22.6505Z" stroke="url(#paint3_linear_1530_14)"/>
</g>
<path d="M72.424 21.616C72.424 21.936 71.632 22.096 70.048 22.096C68.464 22.096 67.672 21.936 67.672 21.616V9.568H64.792C64.52 9.568 64.328 9.2 64.216 8.464C64.168 8.112 64.144 7.752 64.144 7.384C64.144 7.016 64.168 6.656 64.216 6.304C64.328 5.568 64.52 5.2 64.792 5.2H75.232C75.504 5.2 75.696 5.568 75.808 6.304C75.856 6.656 75.88 7.016 75.88 7.384C75.88 7.752 75.856 8.112 75.808 8.464C75.696 9.2 75.504 9.568 75.232 9.568H72.424V21.616ZM94.0469 22.024C92.6229 22.024 91.9109 21.864 91.9109 21.544L91.4069 11.92L88.4789 21.664C88.4149 21.856 87.8709 21.952 86.8469 21.952C85.8229 21.952 85.2949 21.864 85.2629 21.688L82.2389 11.824L81.9029 21.4C81.8869 21.64 81.5829 21.808 80.9909 21.904C80.3989 21.984 79.9029 22.024 79.5029 22.024C79.1189 22.024 78.7429 22 78.3749 21.952C77.6069 21.84 77.2309 21.64 77.2469 21.352L77.7989 5.752C77.7989 5.368 78.7749 5.176 80.7269 5.176C81.3029 5.176 82.0069 5.224 82.8389 5.32C83.6709 5.4 84.1349 5.568 84.2309 5.824L86.9189 13.384L89.2709 5.8C89.4149 5.384 90.5189 5.176 92.5829 5.176C93.1749 5.176 93.8789 5.224 94.6949 5.32C95.5269 5.4 95.9429 5.552 95.9429 5.776L96.6389 21.52C96.6389 21.696 96.3269 21.824 95.7029 21.904C95.0789 21.984 94.5269 22.024 94.0469 22.024ZM99.0203 20.896V6.496C99.0203 6.096 99.1163 5.784 99.3083 5.56C99.5163 5.32 99.7803 5.2 100.1 5.2H104.108C106.652 5.2 108.58 5.84 109.892 7.12C111.22 8.4 111.884 10.416 111.884 13.168C111.884 19.056 109.372 22 104.348 22H100.244C99.4283 22 99.0203 21.632 99.0203 20.896ZM103.628 9.76V16.936C103.628 17.272 103.652 17.488 103.7 17.584C103.748 17.664 103.892 17.704 104.132 17.704C105.012 17.704 105.676 17.376 106.124 16.72C106.588 16.064 106.82 14.976 106.82 13.456C106.82 11.92 106.58 10.92 106.1 10.456C105.636 9.992 104.892 9.76 103.868 9.76H103.628ZM125.593 9.544C125.593 11.208 124.873 12.472 123.433 13.336C124.217 13.624 124.873 14.12 125.401 14.824C125.929 15.528 126.193 16.528 126.193 17.824C126.193 19.104 125.713 20.12 124.753 20.872C123.809 21.624 122.449 22 120.673 22H115.009C114.737 22 114.513 21.912 114.337 21.736C114.161 21.544 114.073 21.296 114.073 20.992V5.632C114.073 5.456 114.097 5.344 114.145 5.296C114.209 5.232 114.329 5.2 114.505 5.2H119.977C123.721 5.2 125.593 6.648 125.593 9.544ZM118.681 9.088V12.232H118.801C120.337 12.232 121.105 11.72 121.105 10.696C121.105 10.136 120.953 9.728 120.649 9.472C120.361 9.216 119.873 9.088 119.185 9.088H118.681ZM118.681 15.064V18.184H119.113C119.801 18.184 120.305 18.056 120.625 17.8C120.945 17.544 121.105 17.136 121.105 16.576C121.105 16.016 120.953 15.624 120.649 15.4C120.361 15.176 119.873 15.064 119.185 15.064H118.681ZM69.784 48.664C69.784 48.92 69.024 49.048 67.504 49.048C65.968 49.048 65.2 48.928 65.2 48.688V33.04C65.2 32.48 65.496 32.2 66.088 32.2H70.672C74.88 32.2 76.984 33.84 76.984 37.12C76.984 38.112 76.792 39.016 76.408 39.832C76.024 40.632 75.48 41.272 74.776 41.752L77.8 46.792C77.672 47.176 77.256 47.616 76.552 48.112C75.592 48.8 74.8 49.144 74.176 49.144C73.552 49.144 73.088 48.92 72.784 48.472L70.528 43.216H69.784V48.664ZM69.784 36.448V40.048H69.904C71.424 40.048 72.184 39.416 72.184 38.152C72.184 37.576 72.032 37.152 71.728 36.88C71.44 36.592 70.96 36.448 70.288 36.448H69.784ZM87.1563 38.872C87.4603 38.872 87.6123 39.432 87.6123 40.552C87.6123 40.888 87.5723 41.288 87.4923 41.752C87.4283 42.2 87.3003 42.424 87.1083 42.424H84.0603V44.824H88.4763C88.7483 44.824 88.9323 45.176 89.0283 45.88C89.0763 46.184 89.1003 46.512 89.1003 46.864C89.1003 47.2 89.0523 47.64 88.9563 48.184C88.8603 48.728 88.7003 49 88.4763 49H80.2683C79.6603 49 79.3563 48.752 79.3563 48.256V32.824C79.3563 32.408 79.5403 32.2 79.9083 32.2H88.5003C88.8363 32.2 89.0043 32.912 89.0043 34.336C89.0043 35.744 88.8363 36.448 88.5003 36.448H84.0603V38.872H87.1563ZM102.472 49.048C101.08 49.048 100.328 48.824 100.216 48.376L99.4242 45.28H95.6082L94.9122 48.256C94.8162 48.752 94.0482 49 92.6082 49C91.8402 49 91.2722 48.96 90.9042 48.88C90.5362 48.784 90.3522 48.712 90.3522 48.664L94.6002 32.416C94.6002 32.288 95.6962 32.224 97.8882 32.224C100.08 32.224 101.176 32.288 101.176 32.416L105.328 48.688C105.328 48.8 104.96 48.888 104.224 48.952C103.488 49.016 102.904 49.048 102.472 49.048ZM96.2082 42.232H98.7282L97.6482 37.264H97.5042L96.2082 42.232ZM113.783 31.984C114.951 31.984 115.975 32.152 116.855 32.488C117.751 32.808 118.199 33.248 118.199 33.808C118.199 34.368 117.983 35.064 117.551 35.896C117.135 36.712 116.783 37.12 116.495 37.12C116.415 37.12 116.319 37.08 116.207 37C116.111 36.904 115.871 36.808 115.487 36.712C115.119 36.6 114.799 36.544 114.527 36.544C113.599 36.544 112.847 36.872 112.271 37.528C111.711 38.184 111.431 39.192 111.431 40.552C111.431 41.896 111.719 42.896 112.295 43.552C112.887 44.208 113.631 44.536 114.527 44.536C114.895 44.536 115.303 44.488 115.751 44.392C116.215 44.28 116.543 44.128 116.735 43.936C116.767 43.904 116.831 43.888 116.927 43.888C117.023 43.888 117.199 44.072 117.455 44.44C117.727 44.792 117.975 45.264 118.199 45.856C118.423 46.432 118.535 46.88 118.535 47.2C118.535 47.824 118.055 48.32 117.095 48.688C116.135 49.056 114.999 49.24 113.687 49.24C111.575 49.24 109.839 48.496 108.479 47.008C107.119 45.52 106.439 43.424 106.439 40.72C106.439 38 107.135 35.864 108.527 34.312C109.935 32.76 111.687 31.984 113.783 31.984ZM127.596 48.616C127.596 48.936 126.804 49.096 125.22 49.096C123.636 49.096 122.844 48.936 122.844 48.616V36.568H119.964C119.692 36.568 119.5 36.2 119.388 35.464C119.34 35.112 119.316 34.752 119.316 34.384C119.316 34.016 119.34 33.656 119.388 33.304C119.5 32.568 119.692 32.2 119.964 32.2H130.404C130.676 32.2 130.868 32.568 130.98 33.304C131.028 33.656 131.052 34.016 131.052 34.384C131.052 34.752 131.028 35.112 130.98 35.464C130.868 36.2 130.676 36.568 130.404 36.568H127.596V48.616Z" fill="url(#paint4_linear_1530_14)"/>
<defs>
<linearGradient id="paint0_linear_1530_14" x1="31.9998" y1="22.7898" x2="31.9998" y2="34.2102" gradientUnits="userSpaceOnUse">
<stop stop-color="#90CEA1"/>
<stop offset="0.5625" stop-color="#3CBEC9"/>
<stop offset="1" stop-color="#00B3E5"/>
</linearGradient>
<linearGradient id="paint1_linear_1530_14" x1="31.9998" y1="16.8011" x2="31.9998" y2="40.1989" gradientUnits="userSpaceOnUse">
<stop stop-color="#90CEA1"/>
<stop offset="0.5625" stop-color="#3CBEC9"/>
<stop offset="1" stop-color="#00B3E5"/>
</linearGradient>
<linearGradient id="paint2_linear_1530_14" x1="42.1212" y1="22.6505" x2="21.8685" y2="34.3315" gradientUnits="userSpaceOnUse">
<stop stop-color="#90CEA1"/>
<stop offset="0.5625" stop-color="#3CBEC9"/>
<stop offset="1" stop-color="#00B3E5"/>
</linearGradient>
<linearGradient id="paint3_linear_1530_14" x1="42.1209" y1="34.3494" x2="21.8682" y2="22.6684" gradientUnits="userSpaceOnUse">
<stop stop-color="#90CEA1"/>
<stop offset="0.5625" stop-color="#3CBEC9"/>
<stop offset="1" stop-color="#00B3E5"/>
</linearGradient>
<linearGradient id="paint4_linear_1530_14" x1="69" y1="40.5" x2="132" y2="40" gradientUnits="userSpaceOnUse">
<stop stop-color="#90CEA1"/>
<stop offset="0.625" stop-color="#3CBEC9"/>
<stop offset="1" stop-color="#00B3E5"/>
</linearGradient>
<clipPath id="clip0_1530_14">
<rect width="64" height="57" fill="white"/>
</clipPath>
</defs>
</svg>
